<svg width="1200" height="900" viewBox="0 0 1200 900" fill="none" xmlns="http://www.w3.org/2000/svg" role="img" aria-label="Developer workspace illustration">
  <defs>
    <linearGradient id="bg" x1="120" y1="40" x2="1080" y2="860" gradientUnits="userSpaceOnUse">
      <stop stop-color="#0F2C4A"/>
      <stop offset="1" stop-color="#1B5C59"/>
    </linearGradient>
    <linearGradient id="card" x1="230" y1="180" x2="980" y2="760" gradientUnits="userSpaceOnUse">
      <stop stop-color="#0C1E33" stop-opacity="0.95"/>
      <stop offset="1" stop-color="#132A3E" stop-opacity="0.9"/>
    </linearGradient>
    <linearGradient id="accent" x1="0" y1="0" x2="1" y2="1">
      <stop stop-color="#54CFC0"/>
      <stop offset="1" stop-color="#7EE8C2"/>
    </linearGradient>
  </defs>

  <rect width="1200" height="900" fill="url(#bg)"/>

  <circle cx="1030" cy="130" r="140" fill="#FFFFFF" fill-opacity="0.07"/>
  <circle cx="180" cy="760" r="170" fill="#FFFFFF" fill-opacity="0.06"/>

  <rect x="210" y="150" width="780" height="600" rx="26" fill="url(#card)" stroke="#D7E7F8" stroke-opacity="0.18"/>

  <rect x="260" y="220" width="680" height="70" rx="12" fill="#1A3552"/>
  <circle cx="300" cy="255" r="10" fill="#F17D7D"/>
  <circle cx="332" cy="255" r="10" fill="#F2CC72"/>
  <circle cx="364" cy="255" r="10" fill="#7BD9A3"/>

  <rect x="260" y="330" width="300" height="170" rx="14" fill="#10243C"/>
  <rect x="585" y="330" width="355" height="40" rx="10" fill="#0D2035"/>
  <rect x="585" y="386" width="260" height="30" rx="8" fill="#0D2035"/>
  <rect x="585" y="430" width="330" height="30" rx="8" fill="#0D2035"/>

  <rect x="260" y="530" width="680" height="170" rx="14" fill="#10243C"/>
  <rect x="300" y="572" width="190" height="22" rx="6" fill="#1C4A67"/>
  <rect x="505" y="572" width="270" height="22" rx="6" fill="#1C4A67"/>
  <rect x="300" y="610" width="420" height="16" rx="6" fill="#173A56"/>
  <rect x="300" y="636" width="520" height="16" rx="6" fill="#173A56"/>

  <rect x="605" y="454" width="180" height="44" rx="10" fill="url(#accent)"/>
  <text x="695" y="482" text-anchor="middle" fill="#0D2E42" font-family="Arial, sans-serif" font-size="18" font-weight="700">Deploy</text>

  <text x="258" y="108" fill="#E7F3FF" font-family="Arial, sans-serif" font-size="36" font-weight="700">Backend Engineering Workflow</text>
</svg>
